<svg fill="none" height="31" viewBox="0 0 44 31" width="44" xmlns="http://www.w3.org/2000/svg"><path clip-rule="evenodd" d="m9.65845 11.9027c5.31065 0 9.61565 4.2731 9.61565 9.5458 0 5.2711-4.305 9.5446-9.61565 9.5446-5.31048 0-9.6155391-4.2735-9.6155391-9.5446l-.0429109-1.3643c0-10.54296 8.61007-19.090426 19.2312-19.090426v5.453616c-3.6692 0-7.1188 1.41887-9.71328 3.99511-.49942.4953-.95523 1.0236-1.36629 1.5788.49096-.0761.99415-.1186 1.50682-.1186zm24.72595 0c5.3105 0 9.6155 4.2731 9.6155 9.5458 0 5.2711-4.305 9.5446-9.6155 9.5446-5.3106 0-9.6157-4.2735-9.6157-9.5446l-.0429-1.3643c0-10.54296 8.6102-19.090426 19.2312-19.090426v5.453616c-3.6691 0-7.1187 1.41887-9.7132 3.99511-.4995.4953-.9552 1.0236-1.3664 1.5788.4911-.0761.9941-.1186 1.507-.1186z" fill="#18cfab" fill-rule="evenodd"/></svg>