<svg fill="none" height="15" viewBox="0 0 15 15" width="15" xmlns="http://www.w3.org/2000/svg"><path clip-rule="evenodd" d="m13.9131 2.72811-1.8183-1.836886c-.8046-.8104238-2.11175-.8153708-2.91799-.00867l-2.0176 2.009946c-.8076.80629-.81103 2.11776-.0087 2.92818l1.15301-1.13177c-.11674-.36061.02689-.77367.31241-1.05951l1.28356-1.27759c.40661-.40563 1.05891-.40274 1.46001.00247l1.0918 1.10371c.4015.40478.3998 1.05908-.0043 1.46512l-1.2836 1.27924c-.2716.27055-.7173.41927-1.0632.32385l-1.12926 1.1326c.80359.81291 2.10936.8158 2.91796.00951l2.015-2.00913c.8102-.8067.8128-2.11941.0092-2.93107zm-7.38697 7.36359c.09578.3524-.05756.808-.3352 1.086l-1.19866 1.1974c-.41153.4094-1.07632.4081-1.48556-.0062l-1.11374-1.1214c-.40832-.4127-.40568-1.0843.00527-1.49283l1.1998-1.19704c.29228-.29162.7124-.43744 1.07907-.31394l1.15643-1.17225c-.81861-.8253-2.15105-.82943-2.97295-.00826l-1.945393 1.94095c-.8229355.82241-.8268285 2.15867-.008687 2.98437l1.85166 1.8732c.81778.8228 2.14907.8295 2.97294.0083l1.94538-1.9414c.82203-.8232.82591-2.157.00904-2.98436zm-.26826-.52869c-.27774.27882-.7236.27798-.99608-.00495-.27387-.28378-.27169-.73773.00434-1.0182l3.32462-3.37883c.27604-.27882.72099-.27798.99438.00289.27535.28171.27363.7369-.00343 1.01901z" fill="#1fdab5" fill-rule="evenodd"/></svg>