<svg fill="none" height="66" viewBox="0 0 198 66" width="198" xmlns="http://www.w3.org/2000/svg"><path d="m76.032 43.976c-.4267.384-.96.6827-1.6.896-.6187.192-1.2693.288-1.952.288-1.5787 0-2.7947-.4267-3.648-1.28s-1.28-2.0587-1.28-3.616v-10.176h-3.008v-1.92h3.008v-3.68h2.272v3.68h5.12v1.92h-5.12v10.048c0 1.0027.2453 1.7707.736 2.304.512.512 1.2373.768 2.176.768.4693 0 .9173-.0747 1.344-.224.448-.1493.832-.3627 1.152-.64zm12.712-15.936c2.112 0 3.7867.6187 5.024 1.856 1.2587 1.216 1.888 2.9973 1.888 5.344v9.76h-2.272v-9.536c0-1.7493-.4373-3.0827-1.312-4s-2.1227-1.376-3.744-1.376c-1.8133 0-3.2533.544-4.32 1.632-1.0453 1.0667-1.568 2.5493-1.568 4.448v8.832h-2.272v-23.744h2.272v9.856c.6187-.9813 1.472-1.7387 2.56-2.272s2.336-.8 3.744-.8zm27.799 9.248h-14.08c.128 1.7493.8 3.168 2.016 4.256 1.216 1.0667 2.752 1.6 4.608 1.6 1.045 0 2.005-.1813 2.88-.544.874-.384 1.632-.9387 2.272-1.664l1.28 1.472c-.747.896-1.686 1.5787-2.816 2.048-1.11.4693-2.336.704-3.68.704-1.728 0-3.264-.3627-4.608-1.088-1.323-.7467-2.358-1.7707-3.104-3.072-.747-1.3013-1.12-2.7733-1.12-4.416s.352-3.1147 1.056-4.416c.725-1.3013 1.706-2.3147 2.944-3.04 1.258-.7253 2.666-1.088 4.224-1.088 1.557 0 2.954.3627 4.192 1.088 1.237.7253 2.208 1.7387 2.912 3.04.704 1.28 1.056 2.752 1.056 4.416zm-8.128-7.296c-1.622 0-2.987.5227-4.096 1.568-1.088 1.024-1.707 2.368-1.856 4.032h11.936c-.15-1.664-.779-3.008-1.888-4.032-1.088-1.0453-2.454-1.568-4.096-1.568z" fill="#fff"/><path d="m141.231 22.6v22.4h-5.184v-9.184h-10.176v9.184h-5.184v-22.4h5.184v8.832h10.176v-8.832zm11.892 4.928c2.667 0 4.715.64 6.144 1.92 1.429 1.2587 2.144 3.168 2.144 5.728v9.824h-4.672v-2.144c-.939 1.6-2.688 2.4-5.248 2.4-1.323 0-2.475-.224-3.456-.672-.96-.448-1.696-1.0667-2.208-1.856s-.768-1.6853-.768-2.688c0-1.6.597-2.8587 1.792-3.776 1.216-.9173 3.083-1.376 5.6-1.376h3.968c0-1.088-.331-1.92-.992-2.496-.661-.5973-1.653-.896-2.976-.896-.917 0-1.824.1493-2.72.448-.875.2773-1.621.6613-2.24 1.152l-1.792-3.488c.939-.6613 2.059-1.1733 3.36-1.536 1.323-.3627 2.677-.544 4.064-.544zm-.384 14.368c.853 0 1.611-.192 2.272-.576.661-.4053 1.131-.992 1.408-1.76v-1.76h-3.424c-2.048 0-3.072.672-3.072 2.016 0 .64.245 1.152.736 1.536.512.3627 1.205.544 2.08.544zm35.238-14.368c2.155 0 3.861.64 5.12 1.92 1.28 1.2587 1.92 3.1573 1.92 5.696v9.856h-4.992v-9.088c0-1.3653-.288-2.3787-.864-3.04-.555-.6827-1.355-1.024-2.4-1.024-1.173 0-2.101.384-2.784 1.152-.683.7467-1.024 1.8667-1.024 3.36v8.64h-4.992v-9.088c0-2.7093-1.088-4.064-3.264-4.064-1.152 0-2.069.384-2.752 1.152-.683.7467-1.024 1.8667-1.024 3.36v8.64h-4.992v-17.216h4.768v1.984c.64-.7253 1.419-1.28 2.336-1.664.939-.384 1.963-.576 3.072-.576 1.216 0 2.315.2453 3.296.736.981.4693 1.771 1.1627 2.368 2.08.704-.896 1.589-1.5893 2.656-2.08 1.088-.4907 2.272-.736 3.552-.736z" fill="#18cfab"/><path d="m0 16.5022v33l29 16.4978 29-16.4978v-33l-29-16.5022z" fill="#18cfab"/><path d="m42 19v28h-6.48v-11.48h-12.72v11.48h-6.48v-28h6.48v11.04h12.72v-11.04z" fill="#fff"/></svg>