<svg fill="none" height="17" viewBox="0 0 16 17" width="16" xmlns="http://www.w3.org/2000/svg"><path clip-rule="evenodd" d="m15.5 6.99735h-5.50004v-5.49948c0-.27593-.22385-.500628-.49998-.500628h-3.00008c-.27603 0-.49999.224698-.49999.500628v5.49948h-5.499916c-.276156 0-.49998601.22471-.49998601.50105v2.9992c0 .2755.22383001.4998.49998601.4998h5.499916v5.5003c0 .2755.22396.5003.49999.5003h3.00008c.27613 0 .49998-.2248.49998-.5003v-5.5003h5.50004c.276 0 .5-.2243.5-.4998v-2.9992c0-.27634-.224-.50105-.5-.50105z" fill="#fff" fill-rule="evenodd"/></svg>