<svg fill="none" height="77" viewBox="0 0 99 77" width="99" xmlns="http://www.w3.org/2000/svg"><path clip-rule="evenodd" d="m81.3619 6.36138h-62.1736v11.17572h-5.4781v-16.541006h73.131v30.084506h-5.4793zm-42.565 70.63492h-38.79702207v-57.0221h38.79702207zm-20.4488-4.6936c0 1.0075.8361 1.8352 1.8687 1.8352 1.0336 0 1.8737-.8277 1.8709-1.8352 0-1.0087-.8373-1.8303-1.8709-1.8303-1.0326 0-1.8687.8216-1.8687 1.8303zm14.8424-46.8336h-27.58011v42.0726h27.57801zm8.1069 17.4031h28.8131v5.3661h-28.8131zm31.6453 33.2331v-42.9429h26.0572v42.9429zm14.2363-40.548c0-.342-.2809-.6167-.629-.6167-.3478 0-.6306.2726-.6306.6167 0 .3374.2828.6188.6306.6188.3481 0 .629-.2814.629-.6188zm3.1188 1.4432h-7.4954v.589h7.4954zm-5.4974 35.7755c0 .813.6756 1.4755 1.5034 1.4755.8282 0 1.5037-.6625 1.5037-1.4755 0-.8137-.6755-1.4713-1.5037-1.4713-.8321 0-1.5034.6622-1.5034 1.4713zm-7.6766-3.5473c3.355.0273 10.9279.0033 17.6951-.0347v-29.4949l-17.6951.0041zm-35.8264-18.795h7.9298 2.0855 18.7978v7.6176h-28.8131v-2.9397h19.3135v-1.4251h-19.3135z" fill="#fff" fill-rule="evenodd"/></svg>