<svg fill="none" height="97" viewBox="0 0 60 97" width="60" xmlns="http://www.w3.org/2000/svg"><path clip-rule="evenodd" d="m48 75.9973c0 1.6571-1.3418 2.9984-3 2.9984h-30c-1.6582 0-3.0001-1.3413-3.0001-2.9984 0-1.6589 1.3419-3.0009 3.0001-3.0009h30c1.6582 0 3 1.342 3 3.0009zm-3 5.9993h-30c-1.6582 0-3.0001 1.3407-3.0001 3s1.3419 2.9993 3.0001 2.9993h30c1.6582 0 3-1.34 3-2.9993s-1.3418-3-3-3zm-21 14.9993h11.9999c3.3165 0 6-2.6831 6-5.9996h-23.9999c0 3.3165 2.6836 5.9996 6 5.9996zm36-65.9999c0 16.3122-9.8321 18.2106-11.6778 35.9999 0 1.6588-1.3418 3.0009-2.9999 3.0009h-30.6445c-1.6584 0-3.0002-1.3421-3.0002-3.0009h-.0058c-1.83972-17.7893-11.6718-19.6877-11.6718-35.9999 0-16.5695 13.4296-30.00015 30-30.00015 16.5702 0 30 13.43065 30 30.00015zm-17.8536-8.9994c-34.87492 8.2493-17.9999 30.0002-17.9999 30.0002 0-12.0011 8.8125-14.8136 8.9999-14.4377-6.1874 6.0001-8.9999 26.4371-8.9999 26.4371h6s0-6.0005 0-11.9994c17.0625.9368 11.9999-27.939 11.9999-30.0002z" fill="#18cfab" fill-rule="evenodd"/></svg>