<svg fill="none" height="98" viewBox="0 0 58 98" width="58" xmlns="http://www.w3.org/2000/svg"><path clip-rule="evenodd" d="m15.7001 35.9758.0109-15.8482c0-1.8303.6859-3.5425 1.9398-4.8213 1.3931-1.4065 3.3864-2.2099 5.4869-2.2099 1.6397 0 3.2152.5106 4.4368 1.4193 1.4791 1.1058 2.4006 2.7746 2.5936 4.6801 0 .0429.8464 8.309 1.6073 15.7077 5.3263-3.1636 8.9167-9.012 8.9167-15.7077 0-10.05275-8.0594-18.19995-18.0044-18.19995-9.9451 0-18.00453 8.1472-18.00453 18.19995-.01055 7.5392 4.53346 14.0171 11.01693 16.78zm.7183 59.8549c0 1.1897.9645 2.1653 2.1434 2.1653h31.679c1.1789 0 2.1433-.9756 2.1433-2.1653v-4.9645h-35.9657zm38.2484-43.8103c1.9935.6489 3.3331 2.523 3.3331 4.6358l-.0214 17.2687c0 2.5681-.6862 5.0808-1.9829 7.2799l-3.6328 6.2078h-35.9659c-10.00975-10.2493-15.08929-21.1785-15.861119-25.8696-.53576264-3.2185 1.682629-5.3727 4.147389-5.3727 1.40392 0 2.89372.692 4.00825 2.3054.35362.5216.73944 1.0839 1.16821 1.701 3.16597 4.6357 6.41557 4.7328 7.89857 4.7771l.0531.0015h.0322c.0432 0 .0967 0 .1394-.0123h.0215c.5143-.0744.8895-.5086.8895-1.0286l.0215-43.7987c-.0109-2.4583 2.1325-3.7792 4.2116-3.7792 1.8326 0 3.6116 1.0278 3.8368 3.1959 0 .0437 2.765 27.0715 2.7756 27.157v.0125h.0106c.761-.6837 2.0254-1.0831 3.4722-1.0831.5361 0 1.0934.0536 1.6612.1606 1.8326.3694 13.8357 4.2789 19.7834 6.241z" fill="#18cfab" fill-rule="evenodd"/></svg>